<?xml version="1.0" encoding="UTF-8" standalone="no"?>
<!-- Created with Inkscape (http://www.inkscape.org/) -->

<svg
   xmlns:dc="http://purl.org/dc/elements/1.1/"
   xmlns:cc="http://creativecommons.org/ns#"
   xmlns:rdf="http://www.w3.org/1999/02/22-rdf-syntax-ns#"
   xmlns:svg="http://www.w3.org/2000/svg"
   xmlns="http://www.w3.org/2000/svg"
   xmlns:xlink="http://www.w3.org/1999/xlink"
   xmlns:sodipodi="http://sodipodi.sourceforge.net/DTD/sodipodi-0.dtd"
   xmlns:inkscape="http://www.inkscape.org/namespaces/inkscape"
   width="256"
   height="256"
   id="svg2"
   version="1.1"
   inkscape:version="0.47 r22583"
   sodipodi:docname="New document 1">
  <defs
     id="defs4">
    <linearGradient
       inkscape:collect="always"
       id="linearGradient4486">
      <stop
         style="stop-color:#ffffff;stop-opacity:1;"
         offset="0"
         id="stop4488" />
      <stop
         style="stop-color:#ffffff;stop-opacity:0;"
         offset="1"
         id="stop4490" />
    </linearGradient>
    <linearGradient
       inkscape:collect="always"
       id="linearGradient4478">
      <stop
         style="stop-color:#6f6f91;stop-opacity:1;"
         offset="0"
         id="stop4480" />
      <stop
         style="stop-color:#6f6f91;stop-opacity:0;"
         offset="1"
         id="stop4482" />
    </linearGradient>
    <linearGradient
       id="linearGradient4440"
       inkscape:collect="always">
      <stop
         id="stop4442"
         offset="0"
         style="stop-color:#0000ff;stop-opacity:1;" />
      <stop
         style="stop-color:#ff0000;stop-opacity:1"
         offset="0.49983326"
         id="stop4444" />
      <stop
         id="stop4446"
         offset="0.49983326"
         style="stop-color:#00ff00;stop-opacity:1" />
      <stop
         id="stop4448"
         offset="1"
         style="stop-color:#ff0000;stop-opacity:1" />
    </linearGradient>
    <linearGradient
       inkscape:collect="always"
       id="linearGradient4418">
      <stop
         style="stop-color:#0000ff;stop-opacity:1;"
         offset="0"
         id="stop4420" />
      <stop
         id="stop4426"
         offset="0.58900523"
         style="stop-color:#ffff00;stop-opacity:1" />
      <stop
         style="stop-color:#00ffff;stop-opacity:1"
         offset="0.58900523"
         id="stop4428" />
      <stop
         style="stop-color:#ff0000;stop-opacity:1"
         offset="1"
         id="stop4422" />
    </linearGradient>
    <linearGradient
       inkscape:collect="always"
       id="linearGradient2917">
      <stop
         style="stop-color:#f2f2f2;stop-opacity:1;"
         offset="0"
         id="stop2919" />
      <stop
         style="stop-color:#4d4d4d;stop-opacity:1"
         offset="1"
         id="stop2921" />
    </linearGradient>
    <linearGradient
       id="linearGradient2881"
       inkscape:collect="always">
      <stop
         id="stop2883"
         offset="0"
         style="stop-color:#e5ffd5;stop-opacity:1" />
      <stop
         style="stop-color:#66ff00;stop-opacity:1"
         offset="0.58024716"
         id="stop2885" />
      <stop
         id="stop2887"
         offset="1"
         style="stop-color:#338000;stop-opacity:1" />
    </linearGradient>
    <linearGradient
       id="linearGradient2873"
       inkscape:collect="always">
      <stop
         id="stop2875"
         offset="0"
         style="stop-color:#fff6d5;stop-opacity:1" />
      <stop
         style="stop-color:#ffcc00;stop-opacity:1"
         offset="0.58024716"
         id="stop2877" />
      <stop
         id="stop2879"
         offset="1"
         style="stop-color:#aa8800;stop-opacity:1" />
    </linearGradient>
    <linearGradient
       inkscape:collect="always"
       id="linearGradient2855">
      <stop
         style="stop-color:#ffd5d5;stop-opacity:1;"
         offset="0"
         id="stop2857" />
      <stop
         id="stop2863"
         offset="0.58024716"
         style="stop-color:#ff0000;stop-opacity:1" />
      <stop
         style="stop-color:#800000;stop-opacity:1"
         offset="1"
         id="stop2859" />
    </linearGradient>
    <linearGradient
       id="linearGradient2831">
      <stop
         style="stop-color:#6f6f91;stop-opacity:1"
         offset="0"
         id="stop2833" />
      <stop
         style="stop-color:#dbdbe3;stop-opacity:1"
         offset="1"
         id="stop2835" />
    </linearGradient>
    <inkscape:perspective
       sodipodi:type="inkscape:persp3d"
       inkscape:vp_x="0 : 526.18109 : 1"
       inkscape:vp_y="0 : 1000 : 0"
       inkscape:vp_z="744.09448 : 526.18109 : 1"
       inkscape:persp3d-origin="372.04724 : 350.78739 : 1"
       id="perspective10" />
    <linearGradient
       inkscape:collect="always"
       xlink:href="#linearGradient2831"
       id="linearGradient2837"
       x1="20"
       y1="1037.3622"
       x2="20"
       y2="822.1297"
       gradientUnits="userSpaceOnUse" />
    <linearGradient
       inkscape:collect="always"
       xlink:href="#linearGradient2831"
       id="linearGradient2841"
       gradientUnits="userSpaceOnUse"
       x1="20"
       y1="1037.3622"
       x2="20"
       y2="822.1297"
       gradientTransform="translate(60,60)" />
    <radialGradient
       inkscape:collect="always"
       xlink:href="#linearGradient2855"
       id="radialGradient2861"
       cx="225"
       cy="106.00077"
       fx="225"
       fy="109.02546"
       r="5"
       gradientUnits="userSpaceOnUse"
       gradientTransform="matrix(1.0000823,-3.3461971e-7,2.7539308e-8,1.0124999,-0.01853955,-1.3256937)" />
    <radialGradient
       inkscape:collect="always"
       xlink:href="#linearGradient2873"
       id="radialGradient2867"
       gradientUnits="userSpaceOnUse"
       gradientTransform="matrix(1.0000823,-3.3461971e-7,2.7539308e-8,1.0124999,-0.01853955,-1.3256937)"
       cx="225"
       cy="106.00077"
       fx="225"
       fy="109.02546"
       r="5" />
    <radialGradient
       inkscape:collect="always"
       xlink:href="#linearGradient2881"
       id="radialGradient2871"
       gradientUnits="userSpaceOnUse"
       gradientTransform="matrix(1.0000823,-3.3461971e-7,2.7539308e-8,1.0124999,-0.01853955,-1.3256937)"
       cx="225"
       cy="106.00077"
       fx="225"
       fy="109.02546"
       r="5" />
    <radialGradient
       inkscape:collect="always"
       xlink:href="#linearGradient2855"
       id="radialGradient2895"
       gradientUnits="userSpaceOnUse"
       gradientTransform="matrix(1.0000823,-3.3461971e-7,2.7539308e-8,1.0124999,-0.01853955,-1.3256937)"
       cx="225"
       cy="106.00077"
       fx="225"
       fy="109.02546"
       r="5" />
    <radialGradient
       inkscape:collect="always"
       xlink:href="#linearGradient2873"
       id="radialGradient2897"
       gradientUnits="userSpaceOnUse"
       gradientTransform="matrix(1.0000823,-3.3461971e-7,2.7539308e-8,1.0124999,-0.01853955,-1.3256937)"
       cx="225"
       cy="106.00077"
       fx="225"
       fy="109.02546"
       r="5" />
    <radialGradient
       inkscape:collect="always"
       xlink:href="#linearGradient2881"
       id="radialGradient2899"
       gradientUnits="userSpaceOnUse"
       gradientTransform="matrix(1.0000823,-3.3461971e-7,2.7539308e-8,1.0124999,-0.01853955,-1.3256937)"
       cx="225"
       cy="106.00077"
       fx="225"
       fy="109.02546"
       r="5" />
    <radialGradient
       inkscape:collect="always"
       xlink:href="#linearGradient2881"
       id="radialGradient2907"
       gradientUnits="userSpaceOnUse"
       gradientTransform="matrix(1.0000823,-3.3461971e-7,2.7539308e-8,1.0124999,-90.01854,-61.325694)"
       cx="225"
       cy="106.00077"
       fx="225"
       fy="109.02546"
       r="5" />
    <linearGradient
       inkscape:collect="always"
       xlink:href="#linearGradient2917"
       id="linearGradient2923"
       x1="135.0132"
       y1="837.62268"
       x2="135.0132"
       y2="843.36218"
       gradientUnits="userSpaceOnUse" />
    <linearGradient
       inkscape:collect="always"
       xlink:href="#linearGradient2917"
       id="linearGradient2931"
       gradientUnits="userSpaceOnUse"
       x1="135.0132"
       y1="837.62268"
       x2="135.0132"
       y2="843.36218" />
    <mask
       maskUnits="userSpaceOnUse"
       id="mask2927">
      <path
         style="fill:url(#linearGradient2931);fill-opacity:1;fill-rule:evenodd;stroke:none"
         d="m 135,837.59375 c -2.41136,0 -4.36709,1.80169 -4.6875,4.125 0.56113,-0.31308 1.23897,-0.64376 2,-0.75 0.9367,-0.13076 1.95981,0.11519 2.65625,1.125 0.29075,0.42159 0.64235,0.62844 1.03125,0.71875 0.3889,0.0903 0.82409,0.0355 1.28125,-0.0937 0.86362,-0.24419 1.76217,-0.78112 2.40625,-1.25 -0.42637,-2.19724 -2.36373,-3.875 -4.6875,-3.875 z"
         id="path2929" />
    </mask>
    <linearGradient
       inkscape:collect="always"
       xlink:href="#linearGradient2917"
       id="linearGradient2940"
       gradientUnits="userSpaceOnUse"
       x1="131"
       y1="840.36212"
       x2="140"
       y2="840.36212" />
    <linearGradient
       inkscape:collect="always"
       xlink:href="#linearGradient2917"
       id="linearGradient2946"
       gradientUnits="userSpaceOnUse"
       x1="131"
       y1="840.36212"
       x2="140"
       y2="840.36212" />
    <mask
       maskUnits="userSpaceOnUse"
       id="mask2942">
      <path
         id="path2944"
         d="m 135,837.59375 c -2.41136,0 -4.36709,1.80169 -4.6875,4.125 0.56113,-0.31308 1.23897,-0.64376 2,-0.75 0.9367,-0.13076 1.95981,0.11519 2.65625,1.125 0.29075,0.42159 0.64235,0.62844 1.03125,0.71875 0.3889,0.0903 0.82409,0.0355 1.28125,-0.0937 0.86362,-0.24419 1.76217,-0.78112 2.40625,-1.25 -0.42637,-2.19724 -2.36373,-3.875 -4.6875,-3.875 z"
         style="fill:url(#linearGradient2946);fill-opacity:1;fill-rule:evenodd;stroke:none" />
    </mask>
    <radialGradient
       inkscape:collect="always"
       xlink:href="#linearGradient2855"
       id="radialGradient2964"
       gradientUnits="userSpaceOnUse"
       gradientTransform="matrix(1.0000823,-3.3461971e-7,2.7539308e-8,1.0124999,-0.01853955,-1.3256937)"
       cx="225"
       cy="106.00077"
       fx="225"
       fy="109.02546"
       r="5" />
    <linearGradient
       inkscape:collect="always"
       xlink:href="#linearGradient2917"
       id="linearGradient2970"
       gradientUnits="userSpaceOnUse"
       x1="135.06879"
       y1="837.36212"
       x2="135.06879"
       y2="842.36212"
       gradientTransform="translate(29.931216,0)" />
    <linearGradient
       inkscape:collect="always"
       xlink:href="#linearGradient2917"
       id="linearGradient2974"
       gradientUnits="userSpaceOnUse"
       gradientTransform="translate(29.931216,0)"
       x1="131.00653"
       y1="840.36212"
       x2="139.06879"
       y2="840.36212" />
    <linearGradient
       inkscape:collect="always"
       xlink:href="#linearGradient2917"
       id="linearGradient2980"
       gradientUnits="userSpaceOnUse"
       x1="135.06879"
       y1="837.36212"
       x2="135.06879"
       y2="842.36212" />
    <mask
       maskUnits="userSpaceOnUse"
       id="mask2976">
      <path
         style="fill:url(#linearGradient2980);fill-opacity:1;fill-rule:evenodd;stroke:none"
         d="m 135,837.59375 c -2.41136,0 -4.36709,1.80169 -4.6875,4.125 0.56113,-0.31308 1.23897,-0.64376 2,-0.75 0.9367,-0.13076 1.95981,0.11519 2.65625,1.125 0.29075,0.42159 0.64235,0.62844 1.03125,0.71875 0.3889,0.0903 0.82409,0.0355 1.28125,-0.0937 0.86362,-0.24419 1.76217,-0.78112 2.40625,-1.25 -0.42637,-2.19724 -2.36373,-3.875 -4.6875,-3.875 z"
         id="path2978" />
    </mask>
    <linearGradient
       inkscape:collect="always"
       xlink:href="#linearGradient2917"
       id="linearGradient2989"
       gradientUnits="userSpaceOnUse"
       gradientTransform="translate(29.931216,0)"
       x1="131.00653"
       y1="840.36212"
       x2="139.06879"
       y2="840.36212" />
    <mask
       maskUnits="userSpaceOnUse"
       id="mask2985">
      <path
         id="path2987"
         d="m 164.93122,837.59375 c -2.41136,0 -4.36709,1.80169 -4.6875,4.125 0.56113,-0.31308 1.23897,-0.64376 2,-0.75 0.9367,-0.13076 1.95981,0.11519 2.65625,1.125 0.29075,0.42159 0.64235,0.62844 1.03125,0.71875 0.3889,0.0903 0.82409,0.0355 1.28125,-0.0937 0.86362,-0.24419 1.76217,-0.78112 2.40625,-1.25 -0.42637,-2.19724 -2.36373,-3.875 -4.6875,-3.875 z"
         style="fill:url(#linearGradient2989);fill-opacity:1;fill-rule:evenodd;stroke:none" />
    </mask>
    <radialGradient
       inkscape:collect="always"
       xlink:href="#linearGradient2881"
       id="radialGradient2998"
       gradientUnits="userSpaceOnUse"
       gradientTransform="matrix(1.0000823,-3.3461971e-7,2.7539308e-8,1.0124999,-0.01853955,-1.3256937)"
       cx="225"
       cy="106.00077"
       fx="225"
       fy="109.02546"
       r="5" />
    <radialGradient
       inkscape:collect="always"
       xlink:href="#linearGradient2873"
       id="radialGradient3112"
       gradientUnits="userSpaceOnUse"
       gradientTransform="matrix(1.0000823,-3.3461971e-7,2.7539308e-8,1.0124999,-0.01853955,-1.3256937)"
       cx="225"
       cy="106.00077"
       fx="225"
       fy="109.02546"
       r="5" />
    <radialGradient
       inkscape:collect="always"
       xlink:href="#linearGradient2855"
       id="radialGradient4236"
       gradientUnits="userSpaceOnUse"
       gradientTransform="matrix(1.0000823,-3.3461971e-7,2.7539308e-8,1.0124999,-0.01853955,-1.3256937)"
       cx="225"
       cy="106.00077"
       fx="225"
       fy="109.02546"
       r="5" />
    <radialGradient
       inkscape:collect="always"
       xlink:href="#linearGradient2873"
       id="radialGradient4238"
       gradientUnits="userSpaceOnUse"
       gradientTransform="matrix(1.0000823,-3.3461971e-7,2.7539308e-8,1.0124999,-0.01853955,-1.3256937)"
       cx="225"
       cy="106.00077"
       fx="225"
       fy="109.02546"
       r="5" />
    <radialGradient
       inkscape:collect="always"
       xlink:href="#linearGradient2881"
       id="radialGradient4240"
       gradientUnits="userSpaceOnUse"
       gradientTransform="matrix(1.0000823,-3.3461971e-7,2.7539308e-8,1.0124999,-0.01853955,-1.3256937)"
       cx="225"
       cy="106.00077"
       fx="225"
       fy="109.02546"
       r="5" />
    <radialGradient
       inkscape:collect="always"
       xlink:href="#linearGradient2855"
       id="radialGradient4268"
       gradientUnits="userSpaceOnUse"
       gradientTransform="matrix(1.0000823,-3.3461971e-7,2.7539308e-8,1.0124999,-0.01853955,-1.3256937)"
       cx="225"
       cy="106.00077"
       fx="225"
       fy="109.02546"
       r="5" />
    <radialGradient
       inkscape:collect="always"
       xlink:href="#linearGradient2873"
       id="radialGradient4270"
       gradientUnits="userSpaceOnUse"
       gradientTransform="matrix(1.0000823,-3.3461971e-7,2.7539308e-8,1.0124999,-0.01853955,-1.3256937)"
       cx="225"
       cy="106.00077"
       fx="225"
       fy="109.02546"
       r="5" />
    <radialGradient
       inkscape:collect="always"
       xlink:href="#linearGradient2881"
       id="radialGradient4272"
       gradientUnits="userSpaceOnUse"
       gradientTransform="matrix(1.0000823,-3.3461971e-7,2.7539308e-8,1.0124999,-0.01853955,-1.3256937)"
       cx="225"
       cy="106.00077"
       fx="225"
       fy="109.02546"
       r="5" />
    <filter
       inkscape:collect="always"
       id="filter4307"
       x="-0.0375"
       width="1.075"
       y="-0.15"
       height="1.3">
      <feGaussianBlur
         inkscape:collect="always"
         stdDeviation="0.625"
         id="feGaussianBlur4309" />
    </filter>
    <radialGradient
       inkscape:collect="always"
       xlink:href="#linearGradient2855"
       id="radialGradient4319"
       gradientUnits="userSpaceOnUse"
       gradientTransform="matrix(1.0000823,-3.3461971e-7,2.7539308e-8,1.0124999,-0.01853955,-1.3256937)"
       cx="225"
       cy="106.00077"
       fx="225"
       fy="109.02546"
       r="5" />
    <radialGradient
       inkscape:collect="always"
       xlink:href="#linearGradient2873"
       id="radialGradient4321"
       gradientUnits="userSpaceOnUse"
       gradientTransform="matrix(1.0000823,-3.3461971e-7,2.7539308e-8,1.0124999,-0.01853955,-1.3256937)"
       cx="225"
       cy="106.00077"
       fx="225"
       fy="109.02546"
       r="5" />
    <radialGradient
       inkscape:collect="always"
       xlink:href="#linearGradient2881"
       id="radialGradient4323"
       gradientUnits="userSpaceOnUse"
       gradientTransform="matrix(1.0000823,-3.3461971e-7,2.7539308e-8,1.0124999,-0.01853955,-1.3256937)"
       cx="225"
       cy="106.00077"
       fx="225"
       fy="109.02546"
       r="5" />
    <filter
       inkscape:collect="always"
       id="filter4365">
      <feGaussianBlur
         inkscape:collect="always"
         stdDeviation="4.8125019"
         id="feGaussianBlur4367" />
    </filter>
    <clipPath
       clipPathUnits="userSpaceOnUse"
       id="clipPath4371">
      <path
         id="path4373"
         d="m 25,832.36215 145,0 c 2.77002,0 5.00003,2.23001 5.00003,5.00003 l 0,109.99992 c 0,2.77 -2.23001,5.0001 -5.00003,5.0001 l -145,0 c -2.770016,0 -5.000029,-2.2301 -5.000029,-5.0001 l 0,-109.99992 c 0,-2.77002 2.230013,-5.00003 5.000029,-5.00003 z"
         style="fill:url(#linearGradient4375);fill-opacity:1;fill-rule:evenodd;stroke:none"
         sodipodi:nodetypes="ccccccccc" />
    </clipPath>
    <linearGradient
       inkscape:collect="always"
       xlink:href="#linearGradient2831"
       id="linearGradient4375"
       gradientUnits="userSpaceOnUse"
       x1="20"
       y1="1037.3622"
       x2="20"
       y2="822.1297" />
    <linearGradient
       inkscape:collect="always"
       xlink:href="#linearGradient2831"
       id="linearGradient4385"
       gradientUnits="userSpaceOnUse"
       x1="20"
       y1="1037.3622"
       x2="20"
       y2="822.1297"
       gradientTransform="translate(0,-796.36215)" />
    <filter
       inkscape:collect="always"
       id="filter4408">
      <feGaussianBlur
         inkscape:collect="always"
         stdDeviation="5.925"
         id="feGaussianBlur4410" />
    </filter>
    <linearGradient
       inkscape:collect="always"
       xlink:href="#linearGradient2831"
       id="linearGradient4414"
       gradientUnits="userSpaceOnUse"
       gradientTransform="matrix(1.4166665,0,0,1.4166665,-8.624983,-336.81742)"
       x1="20"
       y1="1037.3622"
       x2="20"
       y2="822.1297" />
    <linearGradient
       inkscape:collect="always"
       xlink:href="#linearGradient4418"
       id="linearGradient4424"
       x1="-138.5"
       y1="-142.5"
       x2="52.5"
       y2="87.5"
       gradientUnits="userSpaceOnUse" />
    <linearGradient
       inkscape:collect="always"
       xlink:href="#linearGradient4440"
       id="linearGradient4438"
       x1="-231.5"
       y1="-142.5"
       x2="-74.5"
       y2="14.5"
       gradientUnits="userSpaceOnUse" />
    <filter
       inkscape:collect="always"
       id="filter4468">
      <feGaussianBlur
         inkscape:collect="always"
         stdDeviation="3.8958344"
         id="feGaussianBlur4470" />
    </filter>
    <linearGradient
       inkscape:collect="always"
       xlink:href="#linearGradient4478"
       id="linearGradient4484"
       x1="129.5"
       y1="1012.2446"
       x2="129.5"
       y2="1052.6969"
       gradientUnits="userSpaceOnUse" />
    <linearGradient
       inkscape:collect="always"
       xlink:href="#linearGradient4486"
       id="linearGradient4492"
       x1="129.82289"
       y1="-1019.328"
       x2="129.82289"
       y2="-1052.0502"
       gradientUnits="userSpaceOnUse" />
  </defs>
  <sodipodi:namedview
     id="base"
     pagecolor="#ffffff"
     bordercolor="#666666"
     borderopacity="1.0"
     inkscape:pageopacity="0.0"
     inkscape:pageshadow="2"
     inkscape:zoom="1"
     inkscape:cx="208.32831"
     inkscape:cy="198.81341"
     inkscape:document-units="px"
     inkscape:current-layer="layer1"
     showgrid="false"
     inkscape:window-width="1280"
     inkscape:window-height="968"
     inkscape:window-x="-4"
     inkscape:window-y="-4"
     inkscape:window-maximized="1">
    <inkscape:grid
       type="xygrid"
       id="grid2818"
       empspacing="5"
       visible="true"
       enabled="true"
       snapvisiblegridlinesonly="true" />
  </sodipodi:namedview>
  <metadata
     id="metadata7">
    <rdf:RDF>
      <cc:Work
         rdf:about="">
        <dc:format>image/svg+xml</dc:format>
        <dc:type
           rdf:resource="http://purl.org/dc/dcmitype/StillImage" />
        <dc:title></dc:title>
      </cc:Work>
    </rdf:RDF>
  </metadata>
  <g
     inkscape:label="Layer 1"
     inkscape:groupmode="layer"
     id="layer1"
     transform="translate(0,-796.36215)">
    <path
       sodipodi:nodetypes="ccccccccc"
       style="fill:#000000;fill-opacity:1;fill-rule:evenodd;stroke:none;filter:url(#filter4468)"
       d="m 26.791679,842.36215 205.416641,0 c 3.9242,0 7.08338,3.15918 7.08338,7.08337 l 0,155.83318 c 0,3.9242 -3.15918,7.0835 -7.08338,7.0835 l -205.416641,0 c -3.924189,0 -7.083374,-3.1593 -7.083374,-7.0835 l 0,-155.83318 c 0,-3.92419 3.159185,-7.08337 7.083374,-7.08337 z"
       id="path4450" />
    <path
       id="path2839"
       d="m 26.791679,842.36215 205.416641,0 c 3.9242,0 7.08338,3.15918 7.08338,7.08337 l 0,155.83318 c 0,3.9242 -3.15918,7.0835 -7.08338,7.0835 l -205.416641,0 c -3.924189,0 -7.083374,-3.1593 -7.083374,-7.0835 l 0,-155.83318 c 0,-3.92419 3.159185,-7.08337 7.083374,-7.08337 z"
       style="fill:url(#linearGradient4414);fill-opacity:1;fill-rule:evenodd;stroke:none"
       sodipodi:nodetypes="ccccccccc" />
    <g
       id="g4286"
       style="filter:url(#filter4307)"
       transform="matrix(1.4166665,0,0,1.4166665,-93.624973,-421.81741)">
      <path
         sodipodi:type="arc"
         style="fill:url(#radialGradient4268);fill-opacity:1;fill-rule:evenodd;stroke:none"
         id="path4244"
         sodipodi:cx="225"
         sodipodi:cy="106"
         sodipodi:rx="5"
         sodipodi:ry="5"
         d="m 230,106 c 0,2.76142 -2.23858,5 -5,5 -2.76142,0 -5,-2.23858 -5,-5 0,-2.76142 2.23858,-5 5,-5 2.76142,0 5,2.23858 5,5 z"
         transform="translate(0,796.36215)" />
      <path
         transform="translate(-15,796.36215)"
         d="m 230,106 c 0,2.76142 -2.23858,5 -5,5 -2.76142,0 -5,-2.23858 -5,-5 0,-2.76142 2.23858,-5 5,-5 2.76142,0 5,2.23858 5,5 z"
         sodipodi:ry="5"
         sodipodi:rx="5"
         sodipodi:cy="106"
         sodipodi:cx="225"
         id="path4252"
         style="fill:url(#radialGradient4270);fill-opacity:1;fill-rule:evenodd;stroke:none"
         sodipodi:type="arc" />
      <path
         sodipodi:type="arc"
         style="fill:url(#radialGradient4272);fill-opacity:1;fill-rule:evenodd;stroke:none"
         id="path4260"
         sodipodi:cx="225"
         sodipodi:cy="106"
         sodipodi:rx="5"
         sodipodi:ry="5"
         d="m 230,106 c 0,2.76142 -2.23858,5 -5,5 -2.76142,0 -5,-2.23858 -5,-5 0,-2.76142 2.23858,-5 5,-5 2.76142,0 5,2.23858 5,5 z"
         transform="translate(-30,796.36215)" />
    </g>
    <g
       id="g4210"
       transform="matrix(1.4166665,0,0,1.4166665,-8.624983,-336.81742)">
      <path
         transform="translate(-60,736.36215)"
         d="m 230,106 c 0,2.76142 -2.23858,5 -5,5 -2.76142,0 -5,-2.23858 -5,-5 0,-2.76142 2.23858,-5 5,-5 2.76142,0 5,2.23858 5,5 z"
         sodipodi:ry="5"
         sodipodi:rx="5"
         sodipodi:cy="106"
         sodipodi:cx="225"
         id="path4212"
         style="fill:url(#radialGradient4236);fill-opacity:1;fill-rule:evenodd;stroke:none"
         sodipodi:type="arc" />
      <g
         id="g4214">
        <g
           mask="url(#mask2985)"
           id="g4216">
          <path
             id="path4218"
             d="m 135,837.59375 c -2.41136,0 -4.36709,1.80169 -4.6875,4.125 0.56113,-0.31308 1.23897,-0.64376 2,-0.75 0.9367,-0.13076 1.95981,0.11519 2.65625,1.125 0.29075,0.42159 0.64235,0.62844 1.03125,0.71875 0.3889,0.0903 0.82409,0.0355 1.28125,-0.0937 0.86362,-0.24419 1.76217,-0.78112 2.40625,-1.25 -0.42637,-2.19724 -2.36373,-3.875 -4.6875,-3.875 z"
             style="fill:#ffffff;fill-opacity:1;fill-rule:evenodd;stroke:none"
             mask="url(#mask2976)"
             transform="translate(29.931216,0)" />
        </g>
      </g>
      <path
         sodipodi:type="arc"
         style="fill:url(#radialGradient4238);fill-opacity:1;fill-rule:evenodd;stroke:none"
         id="path4220"
         sodipodi:cx="225"
         sodipodi:cy="106"
         sodipodi:rx="5"
         sodipodi:ry="5"
         d="m 230,106 c 0,2.76142 -2.23858,5 -5,5 -2.76142,0 -5,-2.23858 -5,-5 0,-2.76142 2.23858,-5 5,-5 2.76142,0 5,2.23858 5,5 z"
         transform="translate(-75,736.36215)" />
      <g
         id="g4222">
        <g
           transform="translate(-14.981824,0)"
           id="g4224"
           mask="url(#mask2985)">
          <path
             transform="translate(29.931216,0)"
             mask="url(#mask2976)"
             style="fill:#ffffff;fill-opacity:1;fill-rule:evenodd;stroke:none"
             d="m 135,837.59375 c -2.41136,0 -4.36709,1.80169 -4.6875,4.125 0.56113,-0.31308 1.23897,-0.64376 2,-0.75 0.9367,-0.13076 1.95981,0.11519 2.65625,1.125 0.29075,0.42159 0.64235,0.62844 1.03125,0.71875 0.3889,0.0903 0.82409,0.0355 1.28125,-0.0937 0.86362,-0.24419 1.76217,-0.78112 2.40625,-1.25 -0.42637,-2.19724 -2.36373,-3.875 -4.6875,-3.875 z"
             id="path4226" />
        </g>
      </g>
      <path
         transform="translate(-90,736.36215)"
         d="m 230,106 c 0,2.76142 -2.23858,5 -5,5 -2.76142,0 -5,-2.23858 -5,-5 0,-2.76142 2.23858,-5 5,-5 2.76142,0 5,2.23858 5,5 z"
         sodipodi:ry="5"
         sodipodi:rx="5"
         sodipodi:cy="106"
         sodipodi:cx="225"
         id="path4228"
         style="fill:url(#radialGradient4240);fill-opacity:1;fill-rule:evenodd;stroke:none"
         sodipodi:type="arc" />
      <g
         id="g4230">
        <g
           mask="url(#mask2985)"
           id="g4232"
           transform="translate(-29.919455,0)">
          <path
             id="path4234"
             d="m 135,837.59375 c -2.41136,0 -4.36709,1.80169 -4.6875,4.125 0.56113,-0.31308 1.23897,-0.64376 2,-0.75 0.9367,-0.13076 1.95981,0.11519 2.65625,1.125 0.29075,0.42159 0.64235,0.62844 1.03125,0.71875 0.3889,0.0903 0.82409,0.0355 1.28125,-0.0937 0.86362,-0.24419 1.76217,-0.78112 2.40625,-1.25 -0.42637,-2.19724 -2.36373,-3.875 -4.6875,-3.875 z"
             style="fill:#ffffff;fill-opacity:1;fill-rule:evenodd;stroke:none"
             mask="url(#mask2976)"
             transform="translate(29.931216,0)" />
        </g>
      </g>
    </g>
    <rect
       y="870.5379"
       x="27.437454"
       height="134.74088"
       width="204.77087"
       id="rect4327"
       style="fill:#ffffff;fill-rule:evenodd;stroke:none" />
  </g>
</svg>
